<svg width="35" height="37" viewBox="0 0 35 37" fill="none" xmlns="http://www.w3.org/2000/svg">
<path d="M12.4989 30C11.5764 30 10.7789 30.5063 10.3451 31.25H3.3076L6.6176 24.885C6.90135 24.9538 7.19385 25 7.49885 25C9.56635 25 11.2489 23.3175 11.2489 21.25C11.2489 19.1825 9.56635 17.5 7.49885 17.5C5.43135 17.5 3.74885 19.1825 3.74885 21.25C3.74885 22.0987 4.0426 22.8725 4.51885 23.5013L0.140102 31.925C0.0414351 32.1155 -0.00656409 32.3281 0.000721394 32.5425C0.00800688 32.7568 0.0703319 32.9657 0.181701 33.149C0.293071 33.3323 0.449737 33.4839 0.636632 33.5892C0.823526 33.6944 1.03436 33.7498 1.24885 33.75H10.3451C10.7789 34.4938 11.5764 35 12.4989 35C13.1619 35 13.7978 34.7366 14.2666 34.2678C14.7355 33.7989 14.9989 33.163 14.9989 32.5C14.9989 31.837 14.7355 31.2011 14.2666 30.7322C13.7978 30.2634 13.1619 30 12.4989 30ZM7.49885 20C7.8207 20.0144 8.1246 20.1524 8.34726 20.3852C8.56992 20.6181 8.69419 20.9278 8.69419 21.25C8.69419 21.5722 8.56992 21.8819 8.34726 22.1148C8.1246 22.3476 7.8207 22.4856 7.49885 22.5C7.16733 22.5 6.84939 22.3683 6.61497 22.1339C6.38055 21.8995 6.24885 21.5815 6.24885 21.25C6.24885 20.9185 6.38055 20.6005 6.61497 20.3661C6.84939 20.1317 7.16733 20 7.49885 20ZM34.8576 31.9237L29.8076 22.21C30.0136 21.7147 30.0548 21.1662 29.9251 20.6456C29.7954 20.1251 29.5017 19.66 29.0874 19.3192C28.6731 18.9784 28.1601 18.78 27.6243 18.7531C27.0885 18.7263 26.5583 18.8725 26.112 19.1702C25.6657 19.4679 25.327 19.9013 25.1459 20.4063C24.9649 20.9113 24.9511 21.4611 25.1066 21.9746C25.2621 22.488 25.5786 22.9378 26.0094 23.2575C26.4402 23.5773 26.9624 23.7499 27.4989 23.75C27.5926 23.75 27.6826 23.7325 27.7738 23.7212L31.6901 31.25H26.0189C25.762 30.5209 25.2858 29.8891 24.6555 29.4415C24.0253 28.9938 23.2719 28.7523 22.4989 28.75C20.4314 28.75 18.7489 30.4325 18.7489 32.5C18.7489 34.5675 20.4314 36.25 22.4989 36.25C23.2719 36.2477 24.0253 36.0062 24.6555 35.5585C25.2858 35.1109 25.762 34.4791 26.0189 33.75H33.7489C33.9637 33.75 34.1749 33.6947 34.3621 33.5893C34.5494 33.4839 34.7063 33.3321 34.8177 33.1484C34.9291 32.9647 34.9913 32.7554 34.9983 32.5407C35.0053 32.3259 34.9569 32.1143 34.8576 31.9237ZM22.4989 33.75C22.177 33.7356 21.8731 33.5976 21.6504 33.3648C21.4278 33.1319 21.3035 32.8222 21.3035 32.5C21.3035 32.1778 21.4278 31.8681 21.6504 31.6352C21.8731 31.4024 22.177 31.2644 22.4989 31.25C22.8207 31.2644 23.1246 31.4024 23.3473 31.6352C23.5699 31.8681 23.6942 32.1778 23.6942 32.5C23.6942 32.8222 23.5699 33.1319 23.3473 33.3648C23.1246 33.5976 22.8207 33.7356 22.4989 33.75ZM23.7489 8.75C23.4516 8.75327 23.1558 8.79187 22.8676 8.865L18.6076 0.675C18.3926 0.25875 17.9451 0 17.4989 0C17.0526 0 16.6051 0.25875 16.3901 0.67375L11.5239 10.0287C11.4339 10.0175 11.3439 10 11.2489 10C10.7123 9.99982 10.19 10.1723 9.759 10.4918C9.32802 10.8114 9.01128 11.2611 8.85559 11.7745C8.6999 12.288 8.71352 12.8379 8.89443 13.343C9.07535 13.8481 9.41396 14.2816 9.86023 14.5794C10.3065 14.8773 10.8367 15.0236 11.3726 14.9969C11.9085 14.9702 12.4215 14.7717 12.8359 14.431C13.2503 14.0902 13.5441 13.6251 13.6738 13.1045C13.8036 12.5839 13.7624 12.0354 13.5564 11.54L17.4989 3.96L20.7689 10.2475C20.2719 10.8935 20.0013 11.685 19.9989 12.5C19.9989 14.5675 21.6814 16.25 23.7489 16.25C25.8164 16.25 27.4989 14.5675 27.4989 12.5C27.4989 10.4325 25.8164 8.75 23.7489 8.75ZM23.7489 13.75C23.427 13.7356 23.1231 13.5976 22.9004 13.3648C22.6778 13.1319 22.5535 12.8222 22.5535 12.5C22.5535 12.1778 22.6778 11.8681 22.9004 11.6352C23.1231 11.4024 23.427 11.2644 23.7489 11.25C24.0707 11.2644 24.3746 11.4024 24.5973 11.6352C24.8199 11.8681 24.9442 12.1778 24.9442 12.5C24.9442 12.8222 24.8199 13.1319 24.5973 13.3648C24.3746 13.5976 24.0707 13.7356 23.7489 13.75Z" fill="white"/>
</svg>
