<svg width="22" height="24" viewBox="0 0 22 24" fill="none" xmlns="http://www.w3.org/2000/svg">
<path d="M9.7125 20.3813C9.63167 19.7579 9.44167 19.2079 9.1425 18.7313C8.84417 18.2546 8.52917 17.7933 8.1975 17.3475C7.865 16.9008 7.56958 16.4413 7.31125 15.9688C7.05292 15.4963 6.92375 14.9638 6.92375 14.3713C6.92375 13.3554 7.28625 12.4846 8.01125 11.7588C8.73792 11.0329 9.60917 10.67 10.625 10.67C11.6408 10.67 12.5117 11.0329 13.2375 11.7588C13.9633 12.4846 14.3267 13.3554 14.3275 14.3713C14.3275 14.9646 14.1979 15.4933 13.9388 15.9575C13.6804 16.4208 13.385 16.88 13.0525 17.335C12.7208 17.7892 12.4058 18.2546 12.1075 18.7313C11.8083 19.2079 11.6187 19.7579 11.5387 20.3813H9.7125ZM10.0112 23.2563C9.84375 23.0888 9.76 22.8838 9.76 22.6413V22.1125H11.49V22.6413C11.49 22.8829 11.4067 23.0875 11.24 23.255C11.0717 23.4225 10.8667 23.5063 10.625 23.5063C10.3833 23.5063 10.1788 23.4229 10.0112 23.2563ZM18.605 19.7325C18.4983 19.625 18.4371 19.5017 18.4212 19.3625C18.4054 19.2233 18.4412 19.0871 18.5287 18.9538C18.9988 18.2346 19.3613 17.4417 19.6163 16.575C19.8713 15.7083 19.9992 14.8138 20 13.8913C20 12.6654 19.7808 11.5113 19.3425 10.4288C18.9042 9.34626 18.2962 8.37709 17.5187 7.52126C17.4021 7.37876 17.3383 7.23001 17.3275 7.07501C17.3167 6.92001 17.3808 6.77418 17.52 6.63751C17.6417 6.51501 17.7875 6.44959 17.9575 6.44126C18.1275 6.43293 18.2708 6.49793 18.3875 6.63626C19.2767 7.58793 19.9762 8.68001 20.4862 9.91251C20.9954 11.1458 21.25 12.4721 21.25 13.8913C21.25 14.9679 21.1058 15.9942 20.8175 16.97C20.5292 17.945 20.1117 18.8458 19.565 19.6725C19.4483 19.8342 19.2958 19.9217 19.1075 19.935C18.9192 19.9483 18.7517 19.8808 18.605 19.7325ZM1.685 19.6725C1.13833 18.8458 0.720833 17.945 0.4325 16.97C0.144167 15.995 0 14.9688 0 13.8913C0 10.9263 1.02958 8.41418 3.08875 6.35501C5.14792 4.29584 7.66 3.26626 10.625 3.26626H12.39L10.1587 1.05876C10.0421 0.942092 9.98375 0.795009 9.98375 0.617509C9.98375 0.440009 10.0421 0.292509 10.1587 0.175009C10.2754 0.0575088 10.4229 -0.00082453 10.6012 8.80282e-06C10.7796 0.000842136 10.9271 0.0591755 11.0437 0.175009L14.0287 3.18501C14.1371 3.29334 14.2137 3.40459 14.2587 3.51876C14.3037 3.63293 14.3258 3.75709 14.325 3.89126C14.3242 4.02543 14.3021 4.14959 14.2587 4.26376C14.2154 4.37793 14.1387 4.48959 14.0287 4.59876L11.0437 7.58376C10.9054 7.72126 10.7579 7.78876 10.6012 7.78626C10.4438 7.78459 10.2962 7.71459 10.1587 7.57626C10.0212 7.43876 9.9525 7.29001 9.9525 7.13001C9.9525 6.97001 10.0212 6.82168 10.1587 6.68501L12.3275 4.51626H10.625C8.0325 4.51626 5.82167 5.43043 3.9925 7.25876C2.16333 9.08709 1.24917 11.2979 1.25 13.8913C1.25 14.8146 1.37792 15.7092 1.63375 16.575C1.88875 17.4417 2.25125 18.2346 2.72125 18.9538C2.80792 19.0871 2.84375 19.2233 2.82875 19.3625C2.81375 19.5017 2.7525 19.625 2.645 19.7325C2.4975 19.88 2.33 19.9475 2.1425 19.935C1.95417 19.9217 1.80167 19.8342 1.685 19.6725Z" fill="black"/>
</svg>
