<svg xmlns="http://www.w3.org/2000/svg" preserveAspectRatio="none" width="19" height="19" viewBox="0 0 19 19" fill="none">
<g id="circle-info-solid">
<path id="Vector" fill-rule="evenodd" clip-rule="evenodd" d="M9.5 1.5C7.37827 1.5 5.34344 2.34286 3.84315 3.84315C2.34286 5.34344 1.5 7.37827 1.5 9.5C1.5 11.6217 2.34286 13.6566 3.84315 15.1569C5.34344 16.6571 7.37827 17.5 9.5 17.5C11.6217 17.5 13.6566 16.6571 15.1569 15.1569C16.6571 13.6566 17.5 11.6217 17.5 9.5C17.5 7.37827 16.6571 5.34344 15.1569 3.84315C13.6566 2.34286 11.6217 1.5 9.5 1.5ZM9.5 0C12.0196 0 14.4359 1.00089 16.2175 2.78249C17.9991 4.56408 19 6.98044 19 9.5C19 12.0196 17.9991 14.4359 16.2175 16.2175C14.4359 17.9991 12.0196 19 9.5 19C6.98044 19 4.56408 17.9991 2.78249 16.2175C1.00089 14.4359 0 12.0196 0 9.5C0 6.98044 1.00089 4.56408 2.78249 2.78249C4.56408 1.00089 6.98044 0 9.5 0ZM9.5 8C9.16848 8 8.85054 8.1317 8.61612 8.36612C8.3817 8.60054 8.25 8.91848 8.25 9.25V13C8.25 13.3315 8.3817 13.6495 8.61612 13.8839C8.85054 14.1183 9.16848 14.25 9.5 14.25C9.83152 14.25 10.1495 14.1183 10.3839 13.8839C10.6183 13.6495 10.75 13.3315 10.75 13V9.25C10.75 8.91848 10.6183 8.60054 10.3839 8.36612C10.1495 8.1317 9.83152 8 9.5 8ZM8.125 5.625C8.125 6.26039 8.56086 6.75 9.5 6.75C10.4391 6.75 10.875 6.26039 10.875 5.625C10.875 4.98961 10.4391 4.5 9.5 4.5C8.56086 4.5 8.125 4.98961 8.125 5.625Z" fill="#000000"/>
</g>
</svg>