<svg width="40" height="40" viewBox="0 0 40 40" fill="none" xmlns="http://www.w3.org/2000/svg">
<path d="M32.4743 20.9082C33.1878 17.9974 33.055 14.9434 32.0915 12.1055C31.128 9.26766 29.3739 6.76407 27.0356 4.88938C24.6974 3.01469 21.8723 1.84693 18.8928 1.52352C15.9134 1.2001 12.9035 1.7345 10.2175 3.06382C7.53144 4.39313 5.28102 6.46205 3.73104 9.02708C2.18107 11.5921 1.39604 14.5465 1.46835 17.5426C1.54066 20.5387 2.46729 23.4518 4.1392 25.9391C5.81111 28.4264 8.15872 30.3843 10.9057 31.5825M1.46289 17.1597H32.9229" stroke="black" stroke-width="3" stroke-linecap="round" stroke-linejoin="round"/>
<path d="M12.5196 24.4192C11.7298 22.0735 11.2645 19.6309 11.1367 17.1592C11.4333 11.406 13.5527 5.8965 17.1881 1.42773C20.8226 5.89687 22.9409 11.4064 23.2367 17.1592C23.1824 18.168 23.0746 19.1732 22.9139 20.1706M27.0224 23.3649L38.5367 28.3534L27.0224 33.342L15.5139 28.3534L27.0224 23.3649Z" stroke="black" stroke-width="3" stroke-linecap="round" stroke-linejoin="round"/>
<path d="M20.7346 30.6278L20.746 36.0564C20.746 36.0564 22.646 38.5707 27.0231 38.5707C31.4003 38.5707 33.3089 36.0564 33.3089 36.0564V30.6278M15.5117 37.1278V28.3535" stroke="black" stroke-width="3" stroke-linecap="round" stroke-linejoin="round"/>
</svg>
