<svg width="35" height="35" viewBox="0 0 35 35" fill="none" xmlns="http://www.w3.org/2000/svg">
<path fill-rule="evenodd" clip-rule="evenodd" d="M26.7706 7.9625C26.6652 7.05407 26.2558 6.20794 25.6089 5.56147C24.9621 4.915 24.1157 4.50614 23.2072 4.40125L21.4572 6.15125C23.0272 6.88261 24.2895 8.14341 25.0228 9.7125L26.7706 7.9625ZM10.3687 17.2375L18.8344 8.77625C19.7428 8.8817 20.5889 9.29108 21.2354 9.93795C21.8819 10.5848 22.2907 11.4312 22.3956 12.3397L13.9322 20.8031C13.4484 21.2859 12.8259 21.6056 12.1516 21.7175L8.91406 22.2578L9.45438 19.0203C9.56627 18.346 9.88594 17.7213 10.3687 17.2375ZM21.2625 1.70625L16.8875 6.08125L8.05 14.9188C7.08278 15.8858 6.44187 17.1309 6.21688 18.48L5.425 23.2312C5.36805 23.5746 5.39386 23.9266 5.50028 24.258C5.60671 24.5894 5.79067 24.8906 6.0369 25.1366C6.28312 25.3826 6.58449 25.5663 6.91598 25.6725C7.24746 25.7786 7.59949 25.8041 7.94281 25.7469L12.6897 24.9594C14.0398 24.7342 15.2858 24.0925 16.2531 23.1241L25.0906 14.2866L29.4656 9.91156C29.8594 9.51781 30.0781 8.98625 30.0781 8.43063C30.0784 7.46724 29.8889 6.51323 29.5204 5.62309C29.152 4.73295 28.6117 3.92412 27.9306 3.2428C27.2495 2.56148 26.4408 2.02102 25.5508 1.65228C24.6608 1.28354 23.7068 1.09375 22.7434 1.09375C22.1878 1.09375 21.6541 1.3125 21.2603 1.70625M6.01562 28.4375C5.5805 28.4375 5.1632 28.6104 4.85553 28.918C4.54785 29.2257 4.375 29.643 4.375 30.0781C4.375 30.5132 4.54785 30.9305 4.85553 31.2382C5.1632 31.5459 5.5805 31.7188 6.01562 31.7188H28.9844C29.4195 31.7188 29.8368 31.5459 30.1445 31.2382C30.4521 30.9305 30.625 30.5132 30.625 30.0781C30.625 29.643 30.4521 29.2257 30.1445 28.918C29.8368 28.6104 29.4195 28.4375 28.9844 28.4375H6.01562Z" fill="#003060"/>
</svg>
