<svg width="25" height="32" viewBox="0 0 25 32" fill="none" xmlns="http://www.w3.org/2000/svg">
<path d="M6.125 23.25H18.375C18.4745 23.25 18.5703 23.289 18.6406 23.3594C18.711 23.4297 18.75 23.5255 18.75 23.625C18.75 23.7245 18.711 23.8203 18.6406 23.8906C18.5703 23.961 18.4745 24 18.375 24H6.125C6.02554 24 5.9297 23.961 5.85938 23.8906C5.78905 23.8203 5.75 23.7245 5.75 23.625C5.75 23.5255 5.78905 23.4297 5.85938 23.3594C5.9297 23.289 6.02554 23.25 6.125 23.25ZM6.125 18.875H18.375C18.4745 18.875 18.5703 18.914 18.6406 18.9844C18.711 19.0547 18.75 19.1505 18.75 19.25C18.75 19.3495 18.711 19.4453 18.6406 19.5156C18.5703 19.586 18.4745 19.625 18.375 19.625H6.125C6.02554 19.625 5.9297 19.586 5.85938 19.5156C5.78905 19.4453 5.75 19.3495 5.75 19.25C5.75 19.1505 5.78905 19.0547 5.85938 18.9844C5.9297 18.914 6.02554 18.875 6.125 18.875Z" fill="black" stroke="black"/>
<path d="M2.625 0.5H14.3242C14.6188 0.499908 14.91 0.561196 15.1797 0.679688C15.4494 0.798196 15.6915 0.971413 15.8906 1.18848L23.4404 9.41699C23.8002 9.80887 23.9998 10.3216 24 10.8535V28.875C24 29.4386 23.7764 29.9794 23.3779 30.3779C22.9794 30.7764 22.4386 31 21.875 31H2.625C2.06142 31 1.52059 30.7764 1.12207 30.3779C0.723555 29.9794 0.5 29.4386 0.5 28.875V2.625C0.5 2.06142 0.723556 1.52059 1.12207 1.12207C1.52059 0.723556 2.06142 0.5 2.625 0.5ZM2.625 1.25C2.26033 1.25 1.91021 1.39448 1.65234 1.65234C1.39448 1.91021 1.25 2.26033 1.25 2.625V28.875L1.25684 29.0107C1.28806 29.3256 1.42668 29.622 1.65234 29.8477C1.91021 30.1055 2.26033 30.25 2.625 30.25H21.875C22.2397 30.25 22.5898 30.1055 22.8477 29.8477C23.1055 29.5898 23.25 29.2397 23.25 28.875V10.8525C23.2495 10.5084 23.1197 10.1772 22.8867 9.92383H22.8877L15.3379 1.69531C15.2091 1.55491 15.0524 1.44288 14.8779 1.36621C14.7035 1.28965 14.5147 1.24993 14.3242 1.25H2.625Z" fill="black" stroke="black"/>
<path d="M14.875 1.92578V10.1508H23.1" stroke="black" stroke-linecap="round" stroke-linejoin="round"/>
<path d="M8.99707 5.75098C9.18006 5.74537 9.3625 5.77662 9.5332 5.84277C9.70386 5.90893 9.85982 6.00832 9.99121 6.13574C10.1225 6.26306 10.2265 6.41562 10.2979 6.58398C10.3692 6.75256 10.4062 6.93414 10.4062 7.11719C10.4062 7.30026 10.3692 7.4818 10.2979 7.65039C10.2265 7.81877 10.1225 7.9713 9.99121 8.09863C9.85979 8.22609 9.7039 8.32642 9.5332 8.39258C9.36255 8.45869 9.18 8.489 8.99707 8.4834C8.64199 8.47247 8.30497 8.32433 8.05762 8.06934C7.81021 7.81423 7.67187 7.47256 7.67188 7.11719C7.67189 6.76184 7.81022 6.42013 8.05762 6.16504C8.30496 5.91008 8.64202 5.76191 8.99707 5.75098Z" fill="black" stroke="black"/>
<path d="M8.98242 10.1055C10.8191 10.1055 12.2156 11.3669 12.2158 13.0264V13.9609C12.2154 13.993 12.2024 14.0242 12.1797 14.0469C12.1567 14.0698 12.1252 14.0819 12.0928 14.082H5.87305C5.84055 14.082 5.80918 14.0698 5.78613 14.0469C5.77465 14.0354 5.76591 14.0215 5.75977 14.0068L5.75 13.96V13.0264L5.75391 12.8721C5.83756 11.288 7.20307 10.1056 8.98242 10.1055Z" fill="black" stroke="black"/>
</svg>
